<svg id="Calque_1" data-name="Calque 1" xmlns="http://www.w3.org/2000/svg" viewBox="0 0 500 500"><defs><style>.cls-1{fill:#1d1d1b;}.cls-1,.cls-2{stroke:#1d1d1b;stroke-miterlimit:10;stroke-width:8.67px;}.cls-2{fill:#fff;}</style></defs><path class="cls-1" d="M403.65,354.83v29.05H83.16V354.83H99V337.74h17.61v-12h31.7v-8.54h5.12V225h-5.12V214.73h-31.7v-1.87l-16.32-27,121.75-69.19,21.8-12.37,21.23,12.07,122,69.33-16.9,28v1h-31.7v8.54h-4.24v94h4.24v8.54h31.7v12H387.8v17.09ZM223.88,225h-5.13V214.73H197.62V225h-4.24v92.26h4.24v8.54h21.13v-8.54h5.13Zm70.43-1.71h-5.12v-8.54H268.06V225h-4.25v92.26h4.25v8.54h21.13v-8.54h5.12Zm20.59-41-71-40.37-71,40.37Z"/><path class="cls-2" d="M413.65,354.83v29.05H93.16V354.83H109V337.74h17.61v-12h31.7v-8.54h5.12V225h-5.12V214.73h-31.7v-1.87l-16.32-27,121.75-69.19,21.8-12.37,21.23,12.07,122,69.33-16.9,28v1h-31.7v8.54h-4.24v94h4.24v8.54h31.7v12H397.8v17.09ZM233.88,225h-5.13V214.73H207.62V225h-4.24v92.26h4.24v8.54h21.13v-8.54h5.13Zm70.43-1.71h-5.12v-8.54H278.06V225h-4.25v92.26h4.25v8.54h21.13v-8.54h5.12Zm20.59-41-71-40.37-71,40.37Z"/></svg>