<svg id="Calque_1" data-name="Calque 1" xmlns="http://www.w3.org/2000/svg" viewBox="0 0 500 500"><defs><style>.cls-1{fill:#fff;}.cls-2{fill:#e20613;}</style></defs><polygon class="cls-1" points="189.46 132.3 229.16 270.89 189.46 406.3 321.4 410.98 273.44 272.5 321.4 129.58 189.46 132.3"/><polygon points="325.76 410.98 197.07 410.98 197.07 404.31 316.55 404.31 273.44 272.5 316.62 133.44 306.91 133.48 309.42 126.77 325.69 126.77 280.44 272.45 325.76 410.98"/><polygon points="316.27 410.98 174.24 410.98 219.56 272.45 174.31 126.77 205.39 126.77 207.9 133.48 196.72 133.44 239.91 272.5 239.58 273.51 196.79 404.31 316.27 404.31 316.27 410.98"/><polygon class="cls-2" points="257.76 319.74 270.22 356.03 282.68 392.32 257.76 392.32 232.85 392.32 245.31 356.03 257.76 319.74"/><polygon class="cls-2" points="257.76 268.81 240.59 218.77 195.32 89.02 257.4 89.02 319.49 89.02 274.94 218.77 257.76 268.81"/><polygon class="cls-2" points="257.76 268.88 248.6 242.19 239.44 215.5 257.76 215.5 276.09 215.5 266.93 242.19 257.76 268.88"/></svg>