<svg id="Calque_1" data-name="Calque 1" xmlns="http://www.w3.org/2000/svg" viewBox="0 0 1100 500"><defs><style>.cls-1{fill:#e20613;}</style></defs><polygon class="cls-1" points="831.52 184.28 551.54 464.26 550.84 463.56 550.14 464.26 270.16 184.28 422.36 32.09 550.84 160.57 679.33 32.09 831.52 184.28"/><path class="cls-1" d="M551.47,497.37l-2.1-2.12-15.74-14.47-296.5-296.5L422.36-.95,550.84,127.54,679.33-.95,864.56,184.28Zm-1.32-66.28.78.73L798.49,184.28,679.33,65.13,550.84,193.61,422.36,65.13,303.19,184.28,550.08,431.16Z"/><polygon class="cls-1" points="829.75 187.05 549.77 467.03 549.07 466.33 548.37 467.03 268.39 187.05 420.58 34.86 549.07 163.34 677.55 34.86 829.75 187.05"/><path class="cls-1" d="M549.84,500l-.64-.63-.07.06-17.28-15.88L235.36,187.05,420.58,1.82,549.06,130.3,677.55,1.82,862.78,187.05ZM301.43,187.05,549.07,434.69,796.71,187.05,677.55,67.9,549.06,196.38,420.58,67.9Z"/></svg>