<svg id="Calque_1" data-name="Calque 1" xmlns="http://www.w3.org/2000/svg" viewBox="0 0 595.28 841.89"><defs><style>.cls-1{fill:#010101;}.cls-2{fill:#e52528;}</style></defs><polygon class="cls-1" points="499.87 800 156.33 800 156.33 782.19 475.3 782.19 360.19 430.31 475.49 59.06 156.33 59.06 156.33 41.25 499.68 41.25 378.89 430.17 499.87 800"/><polygon class="cls-1" points="474.55 800 95.38 800 216.36 430.17 95.57 41.25 474.55 41.25 474.55 59.06 155.39 59.06 270.69 430.31 269.8 433 155.58 782.19 474.55 782.19 474.55 800"/><polygon class="cls-2" points="318.36 482.97 364.22 616.58 410.08 750.18 318.36 750.18 226.63 750.18 272.49 616.58 318.36 482.97"/><polygon class="cls-2" points="318.36 420.63 293.89 349.37 269.43 278.12 318.36 278.12 367.28 278.12 342.82 349.37 318.36 420.63"/></svg>