<svg id="Calque_1" data-name="Calque 1" xmlns="http://www.w3.org/2000/svg" viewBox="0 0 500 500"><defs><style>.cls-1{fill:#1d1d1b;}.cls-2{fill:#fff;}</style></defs><polygon class="cls-1" points="154.98 273.41 343.21 273.41 378.99 301.01 378.99 273.41 378.99 147.7 154.98 147.7 154.98 273.41"/><path class="cls-1" d="M381.69,306.51l-39.4-30.39h-190V145H381.69Zm-224-35.8H344.14l32.14,24.8V150.4H157.69Z"/><polygon class="cls-2" points="168.81 273.41 357.04 273.41 392.81 301.01 392.81 273.41 392.81 147.7 168.81 147.7 168.81 273.41"/><path class="cls-1" d="M395.52,306.51l-39.4-30.39h-190V145H395.52Zm-224-35.8H358l32.15,24.8V150.4H171.51Z"/><polygon class="cls-1" points="331.19 321.91 142.96 321.91 107.19 349.5 107.19 321.91 107.19 196.19 331.19 196.19 331.19 321.91"/><path class="cls-1" d="M104.48,193.49H333.89V324.61h-190L104.48,355Zm224,5.41H109.89V344L142,319.2H328.49Z"/><polygon class="cls-2" points="348.01 321.91 159.78 321.91 124.01 349.5 124.01 321.91 124.01 196.19 348.01 196.19 348.01 321.91"/><path class="cls-1" d="M121.3,193.49H350.72V324.61h-190L121.3,355Zm224,5.41H126.71V344l32.15-24.8H345.31Z"/></svg>