<svg id="Calque_1" data-name="Calque 1" xmlns="http://www.w3.org/2000/svg" viewBox="0 0 500 500"><defs><style>.cls-1{fill:#fff;}.cls-2{fill:#1d1d1b;}</style></defs><polygon class="cls-1" points="300.44 120.34 161.1 127.06 148.04 144.72 148.59 275.24 147.04 307 123.29 356.55 261.07 356.55 286.38 342.49 300.44 317.21 297.63 198.98 317.32 185.02 300.44 173.74 300.44 120.34"/><polygon class="cls-2" points="262.17 360.77 232.53 360.77 232.53 352.33 259.98 352.33 283.28 339.39 296.23 316.11 296.23 197 310.26 185.38 296.23 176 296.23 124.56 179.23 124.56 157.81 134.57 152.81 154.07 152.81 302.24 129.86 352.33 175.1 352.33 175.1 360.77 116.71 360.77 144.38 300.4 144.38 153 150.63 128.61 177.35 116.12 304.66 116.12 304.66 171.49 324.37 184.66 304.66 200.97 304.66 318.3 289.48 345.59 262.17 360.77"/><polygon class="cls-2" points="194.38 357.15 187.17 352.78 230.52 281.14 197.57 245.15 203.79 239.45 241.01 280.11 194.38 357.15"/><polygon class="cls-2" points="202.86 383.88 186.07 383.88 186.07 354.97 194.51 354.97 194.51 375.44 202.86 375.44 202.86 383.88"/><rect class="cls-2" x="186.07" y="353.86" width="8.44" height="1.11"/><polygon class="cls-2" points="200.04 383.88 183.26 383.88 183.26 353.86 191.7 353.86 191.7 375.44 200.04 375.44 200.04 383.88"/><polygon class="cls-2" points="236.6 383.88 219.82 383.88 219.82 353.86 228.25 353.86 228.25 375.44 236.6 375.44 236.6 383.88"/><polygon class="cls-2" points="233.79 383.88 216.93 383.88 217.49 352.26 225.93 352.41 225.52 375.44 233.79 375.44 233.79 383.88"/><polygon class="cls-2" points="259.36 360.77 224.03 360.77 224.03 352.33 257.17 352.33 280.47 339.39 293.41 316.11 293.41 197 307.45 185.38 293.41 176 293.41 124.56 176.41 124.56 155 134.57 150 154.07 150 302.24 127.05 352.33 193.76 352.33 193.76 360.77 113.9 360.77 141.56 300.4 141.56 153 147.81 128.61 174.54 116.12 301.85 116.12 301.85 171.49 321.55 184.66 301.85 200.97 301.85 318.3 286.67 345.59 259.36 360.77"/><polygon class="cls-1" points="318.62 161.6 293.41 225.79 361.12 227.91 381.48 162.21 318.62 161.6"/><polygon class="cls-1" points="318.62 161.6 290.73 227.91 361.12 227.91 381.48 162.21 318.62 161.6"/><path class="cls-2" d="M364.22,232.12H284.38l31.45-74.77,71.36.7Zm-67.14-8.43H358l17.77-57.32-54.37-.53Z"/><polygon class="cls-2" points="354.58 230.4 323.77 188.39 376.26 158.55 380.43 165.88 336.17 191.04 361.38 225.41 354.58 230.4"/><polygon class="cls-2" points="321.48 183.61 307 183.61 298 177.17 302.89 170.31 321.48 183.61"/><rect class="cls-2" x="256.86" y="144.24" width="16.87" height="16.87"/></svg>