<svg id="Calque_1" data-name="Calque 1" xmlns="http://www.w3.org/2000/svg" viewBox="0 0 500 500"><defs><style>.cls-1{fill:#1d1d1b;}.cls-2{fill:#fff;}</style></defs><path class="cls-1" d="M353.86,306.73H335.92l-98.37-98.37,1.79-1.8V158L205,123.71H173.16l28.19,28.19-10.77,40.2-40.21,10.77-28.18-28.19v31.88l34.31,34.31H205l.9-.9,97.79,97.78v19.12l20.77,20.78h29.37l20.78-20.78V327.51Zm.8,40.56-8.2,8.19H334.87l-8.2-8.19V335.7l8.2-8.2h11.59l8.2,8.2Z"/><path class="cls-1" d="M355.79,382.31H322.56L299.05,358.8V339.68l-94.14-94.14H154.57l-37-37V163.43l34.25,34.24,35-9.38,9.37-35L161.9,119.05H207l37,37.05v52.12l93.84,93.84h17.94l23.51,23.51V358.8ZM326.43,373h25.5l18-18v-25.5l-18-18.05H334l-103-103,3.73-3.74V160L203.1,128.38H184.42l22.13,22.13-12.17,45.4L149,208.07l-22.13-22.13v18.69l31.58,31.58H203.1l2.83-2.84L308.38,335.82v19.12Zm22-12.83H332.94L322,349.22V333.77l10.93-10.94h15.45l10.93,10.94v15.45Zm-11.59-9.33h7.73l5.46-5.46v-7.73l-5.46-5.47H336.8l-5.46,5.47v7.73Z"/><path class="cls-2" d="M363.34,305.51H345.39L247,207.14l1.8-1.8V156.81L214.5,122.5H182.63l28.19,28.19-10.77,40.2-40.2,10.77-28.19-28.19v31.87L166,239.66H214.5l.91-.91,97.78,97.79v19.12L334,376.43h29.37l20.77-20.77V326.29Zm.79,40.56-8.19,8.2H344.35l-8.2-8.2V334.48l8.2-8.2h11.59l8.19,8.2Z"/><path class="cls-1" d="M365.27,381.1H332l-23.51-23.51V338.47l-94.15-94.15H164l-37-37V162.21l34.25,34.25,35-9.38,9.38-35-34.25-34.24h45.07l37,37V207l93.84,93.84h17.95l23.51,23.51v33.23Zm-29.37-9.33h25.5l18.05-18V328.22l-18.05-18H343.46l-103-103,3.74-3.73V158.75l-31.59-31.59H193.89L216,149.29,203.86,194.7l-45.41,12.16-22.13-22.13v18.68L167.91,235h44.66l2.84-2.84L317.86,334.61v19.12Zm22-12.84H342.41L331.49,348V332.55l10.92-10.93h15.46l10.93,10.93V348Zm-11.59-9.32H354l5.47-5.47v-7.73L354,331h-7.73l-5.47,5.46v7.73Z"/></svg>