<svg id="Calque_1" data-name="Calque 1" xmlns="http://www.w3.org/2000/svg" viewBox="0 0 500 500"><defs><style>.cls-1{fill:#fff;}.cls-2{fill:#1d1d1b;}</style></defs><polygon class="cls-1" points="258.06 299.83 256.67 302.84 215.65 268.49 175.96 181.32 180.93 181.32 220.62 268.49 258.06 299.83"/><polygon class="cls-2" points="258.01 308.82 212.61 270.81 170.17 177.6 183.33 177.6 223.66 266.18 262.64 298.81 258.01 308.82"/><polygon class="cls-2" points="200.95 136.62 226.75 181.32 216.82 181.32 191.01 136.62 218.26 89.44 228.19 89.44 200.95 136.62"/><path class="cls-2" d="M233.2,185.05H214.66l-27.95-48.43,29.4-50.91h18.53l-29.39,50.91ZM219,177.6h1.33l-23.65-41,25.09-43.46h-1.33l-25.1,43.46Z"/><polygon class="cls-1" points="317.52 181.32 263.03 299.83 225.58 268.49 185.9 181.32 226.75 181.32 200.95 136.62 228.19 89.44 282.68 89.44 309.92 136.62 284.12 181.32 317.52 181.32"/><path class="cls-2" d="M264.38,305.82l-41.84-35L180.11,177.6H220.3l-23.65-41L226,85.71h58.79l29.39,50.91-23.65,41h32.76Zm-35.76-39.64,33.06,27.67,50-108.8h-34l28-48.43-25.1-43.46H230.34l-25.09,43.46,27.95,48.43H191.69Z"/><rect class="cls-2" x="180.93" y="263.28" width="119.2" height="119.2"/><path class="cls-2" d="M301.38,383.72H179.69V262H301.38Zm-119.21-2.48H298.89V264.52H182.17Z"/><rect class="cls-1" x="193.35" y="265.76" width="119.2" height="119.2"/><path class="cls-2" d="M316.28,388.69H189.62V262H316.28Zm-119.21-7.45H308.83V269.49H197.07Z"/><rect class="cls-2" x="158.58" y="382.48" width="176.32" height="27.32"/><path class="cls-2" d="M338.63,413.52H154.85V378.76H338.63ZM162.3,406.07H331.18V386.21H162.3Z"/><rect class="cls-1" x="220.66" y="293.89" width="66.94" height="60.04"/><path class="cls-2" d="M291.28,357.6H217V290.21h74.29Zm-66.94-7.35h59.59V297.56H224.34Z"/><rect class="cls-1" x="166.03" y="382.48" width="176.32" height="27.32"/><path class="cls-2" d="M346.08,413.52H162.3V378.76H346.08Zm-176.33-7.45H338.63V386.21H169.75Z"/></svg>