<svg id="Calque_1" data-name="Calque 1" xmlns="http://www.w3.org/2000/svg" viewBox="0 0 1100 500"><defs><style>.cls-1{fill:#1d1d1b;}</style></defs><polygon class="cls-1" points="414.01 394.38 561.93 306.09 944.97 74.87 916.83 286.17 1028.23 470.49 584.97 415.56 414.01 394.38"/><path class="cls-1" d="M1073.74,500,342.63,409.41,549.79,285.76,975,29.1,941.4,281ZM485.4,379.36,982.71,441,892.24,291.3,915,120.65,574.17,326.38Z"/><polygon class="cls-1" points="685.91 104.67 537.99 192.96 154.95 424.18 183.09 212.88 71.69 28.56 514.95 83.49 685.91 104.67"/><path class="cls-1" d="M125,470,158.52,218,26.18-.95,757.29,89.64,550.13,213.3ZM117.2,58.07l90.47,149.68L185,378.41l340.8-205.73,88.77-53Z"/></svg>